<svg width="73" height="59" viewBox="0 0 73 59" fill="none" xmlns="http://www.w3.org/2000/svg">
<path d="M64.2956 10.4887H56.6991L52.5052 4.15825C50.9226 1.78433 48.153 0.359985 45.3043 0.359985H27.8956C25.0469 0.359985 22.2774 1.78433 20.6948 4.15825L16.5009 10.4887H8.90433C4.07737 10.4887 0.199982 14.3661 0.199982 19.193V49.8956C0.199982 54.7226 4.07737 58.6 8.90433 58.6H64.2956C69.1226 58.6 73 54.7226 73 49.8956V19.193C73 14.3661 69.1226 10.4887 64.2956 10.4887ZM36.6 51.4783C25.7591 51.4783 16.9756 42.6948 16.9756 31.8539C16.9756 21.013 25.7591 12.3087 36.6 12.3087C47.4409 12.3087 56.2243 21.0922 56.2243 31.933C56.2243 42.6948 47.4409 51.4783 36.6 51.4783ZM63.1878 22.7539C63.1087 22.7539 63.0296 22.7539 62.8713 22.7539H59.7061C58.2817 22.6748 57.1739 21.4878 57.253 20.0635C57.3322 18.7182 58.3609 17.6896 59.7061 17.6104H62.8713C64.2956 17.5313 65.4826 18.6391 65.5617 20.0635C65.6409 21.4878 64.6122 22.6748 63.1878 22.7539Z" fill="black"/>
<path d="M36.6 21.013C30.5861 21.013 25.68 25.9191 25.68 31.933C25.68 37.9469 30.5861 42.7739 36.6 42.7739C42.6139 42.7739 47.52 37.8678 47.52 31.8539C47.52 25.84 42.6139 21.013 36.6 21.013Z" fill="black"/>
</svg>
