<svg width="19" height="19" viewBox="0 0 19 19" fill="none" xmlns="http://www.w3.org/2000/svg">
<path d="M4.37855 0.218262H14.6218C17.0175 0.218262 19 2.20084 19 4.59645V9.14856C19 11.5442 17.0175 13.5267 14.6218 13.5267H9.20236L5.90678 17.8223C5.86548 17.8223 5.49375 18.2767 4.9981 18.1114C4.66768 18.0288 4.46116 17.7397 4.46116 17.4093V13.5267C1.98294 13.5267 0.000366211 11.6268 0.000366211 9.14856V4.59645C0.000366211 2.20084 1.98294 0.218262 4.37855 0.218262ZM14.6218 1.37476H4.37855C2.60249 1.37476 1.15687 2.82039 1.15687 4.59645V9.14856C1.15687 10.9246 2.60249 12.3702 4.37855 12.3702H4.58507C5.12202 12.3702 5.61766 12.8659 5.61766 13.4028V16.4593L8.70672 12.3702H14.6218C16.3979 12.3702 17.8435 10.9246 17.8435 9.14856V4.59645C17.8435 2.82039 16.3979 1.37476 14.6218 1.37476Z" fill="#FF3C2D"/>
<path d="M5.06683 4.41304C5.06683 4.61955 5.23205 4.82607 5.47987 4.82607H13.603C13.8508 4.82607 14.016 4.61955 14.016 4.41304C14.016 4.16521 13.8508 4 13.603 4H5.47987C5.23205 4 5.06683 4.16521 5.06683 4.41304Z" fill="#FF3C2D"/>
<path d="M5.06683 6.85298C5.06683 7.0595 5.23205 7.26601 5.47987 7.26601H13.603C13.8508 7.26601 14.016 7.0595 14.016 6.85298C14.016 6.60516 13.8508 6.43994 13.603 6.43994H5.47987C5.23205 6.43994 5.06683 6.60516 5.06683 6.85298Z" fill="#FF3C2D"/>
<path d="M5.06683 9.41304C5.06683 9.61955 5.23205 9.82607 5.47987 9.82607H13.603C13.8508 9.82607 14.016 9.61955 14.016 9.41304C14.016 9.16521 13.8508 9 13.603 9H5.47987C5.23205 9 5.06683 9.16521 5.06683 9.41304Z" fill="#FF3C2D"/>
</svg>
