<svg width="77" height="40" viewBox="0 0 77 40" fill="none" xmlns="http://www.w3.org/2000/svg">
<path d="M64.1667 8C62.2413 8 60.9583 9.2796 60.9583 11.2C60.9583 13.1204 62.2413 14.4 64.1667 14.4C66.0921 14.4 67.375 13.1204 67.375 11.2C67.375 9.2796 66.0921 8 64.1667 8ZM64.1667 17.6C60.6371 17.6 57.75 14.7204 57.75 11.2C57.75 7.6796 60.6371 4.8 64.1667 4.8C67.6962 4.8 70.5833 7.6796 70.5833 11.2C70.5833 14.7204 67.6962 17.6 64.1667 17.6Z" fill="#FF3C2D"/>
<path d="M75.3958 33.6C74.4331 33.6 73.7917 32.9602 73.7917 32V28.8C73.7917 26.2398 71.546 24 68.9792 24H59.3542C58.3915 24 57.75 23.3602 57.75 22.4C57.75 21.4398 58.3915 20.8 59.3542 20.8H68.9792C73.4704 20.8 77 24.3204 77 28.8V32C77 32.9602 76.3585 33.6 75.3958 33.6Z" fill="#FF3C2D"/>
<path d="M12.8333 8C10.9079 8 9.62499 9.2796 9.62499 11.2C9.62499 13.1204 10.9079 14.4 12.8333 14.4C14.7587 14.4 16.0417 13.1204 16.0417 11.2C16.0417 9.2796 14.7587 8 12.8333 8ZM12.8333 17.6C9.30376 17.6 6.41666 14.7204 6.41666 11.2C6.41666 7.6796 9.30376 4.8 12.8333 4.8C16.3629 4.8 19.25 7.6796 19.25 11.2C19.25 14.7204 16.3629 17.6 12.8333 17.6Z" fill="#FF3C2D"/>
<path d="M1.60417 33.6C0.641466 33.6 0 32.9602 0 32V28.8C0 24.3204 3.52957 20.8 8.02083 20.8H17.6458C18.6085 20.8 19.25 21.4398 19.25 22.4C19.25 23.3602 18.6085 24 17.6458 24H8.02083C5.45397 24 3.20833 26.2398 3.20833 28.8V32C3.20833 32.9602 2.56687 33.6 1.60417 33.6Z" fill="#FF3C2D"/>
<path d="M38.5 3.2C34.9704 3.2 32.0833 6.0796 32.0833 9.6C32.0833 13.1204 34.9704 16 38.5 16C42.0296 16 44.9167 13.1204 44.9167 9.6C44.9167 6.0796 42.0296 3.2 38.5 3.2ZM38.5 19.2C33.046 19.2 28.875 15.0398 28.875 9.6C28.875 4.1602 33.046 0 38.5 0C43.954 0 48.125 4.1602 48.125 9.6C48.125 15.0398 43.954 19.2 38.5 19.2Z" fill="#FF3C2D"/>
<path d="M54.5417 40C53.579 40 52.9375 39.3602 52.9375 38.4V32C52.9375 29.4398 50.6919 27.2 48.125 27.2H28.875C26.3081 27.2 24.0625 29.4398 24.0625 32V38.4C24.0625 39.3602 23.421 40 22.4583 40C21.4956 40 20.8542 39.3602 20.8542 38.4V32C20.8542 27.5204 24.3837 24 28.875 24H48.125C52.6163 24 56.1458 27.5204 56.1458 32V38.4C56.1458 39.3602 55.5044 40 54.5417 40Z" fill="#FF3C2D"/>
</svg>
