<svg width="16" height="16" viewBox="0 0 17 17" fill="none" xmlns="http://www.w3.org/2000/svg">
<path d="M14.0603 14.9295C14.2144 14.7958 14.3647 14.6562 14.5104 14.5104C16.1158 12.905 17 10.7704 17 8.5C17 7.98286 16.9532 7.46476 16.8608 6.96014L16.7861 6.55177H8.00195V10.5361H12.5326C12.2192 11.1595 11.771 11.6909 11.2311 12.1003L14.0603 14.9295Z" fill="black"/>
<path d="M9.82033 12.8203C9.40055 12.9478 8.95677 13.0156 8.5 13.0156C7.03388 13.0156 5.72893 12.3131 4.9035 11.2272L2.07048 14.0603C2.20422 14.2144 2.34384 14.3647 2.48957 14.5104C4.09504 16.1158 6.22957 17 8.5 17C10.0451 17 11.5271 16.5901 12.8224 15.8224L9.82033 12.8203Z" fill="black"/>
<path d="M5.30866 5.30866C6.12627 4.49094 7.25503 3.98438 8.5 3.98438C9.70614 3.98438 10.8401 4.45407 11.693 5.30695L12.0452 5.65911L14.8626 2.84176L14.5104 2.4896C12.905 0.884166 10.7705 0 8.5 0C6.22957 0 4.09504 0.884166 2.48957 2.48957L5.30866 5.30866Z" fill="black"/>
<path d="M1.17759 12.8224L4.18096 9.81904C4.05319 9.40162 3.98438 8.95871 3.98438 8.5C3.98438 7.84357 4.12529 7.21949 4.37826 6.6562L1.45812 3.73605C0.5101 5.13108 0 6.77623 0 8.5C0 10.0451 0.40986 11.5271 1.17759 12.8224Z" fill="black"/>
</svg>
