<svg width="98" height="50" viewBox="0 0 98 50" fill="none" xmlns="http://www.w3.org/2000/svg">
<path d="M3.01466 28.0159L87.705 28.0159L71.7446 43.9764C70.567 45.1539 70.567 47.0626 71.7446 48.2402C72.9221 49.4177 74.8316 49.4177 76.0091 48.2402L97.1169 27.1324C98.2944 25.9549 98.2944 24.0454 97.1169 22.8686L76.0091 1.76085C75.4203 1.1721 74.6484 0.877345 73.8764 0.877345C73.1053 0.877345 72.3333 1.1721 71.7446 1.76085C70.567 2.93837 70.567 4.84787 71.7446 6.02463L87.705 21.9851L3.01466 21.9851C1.35016 21.9851 -0.000732422 23.3353 -0.000732422 25.0005C-0.000732422 26.6658 1.34941 28.0159 3.01466 28.0159Z" fill="#626262"/>
</svg>
