<svg width="35px" height="40px" viewBox="0 0 35 40" fill="none" xmlns="http://www.w3.org/2000/svg">
<path d="M17.5 3.20001C13.9996 3.20001 11.1364 6.07961 11.1364 9.60001C11.1364 13.1204 13.9996 16 17.5 16C21.0004 16 23.8637 13.1204 23.8637 9.60001C23.8637 6.07961 21.0004 3.20001 17.5 3.20001ZM17.5 19.2C12.0912 19.2 7.95459 15.0398 7.95459 9.60001C7.95459 4.16021 12.0912 1.33514e-05 17.5 1.33514e-05C22.9089 1.33514e-05 27.0455 4.16021 27.0455 9.60001C27.0455 15.0398 22.9089 19.2 17.5 19.2Z" fill="#FF3C2D"/>
<path d="M33.4091 40C32.4543 40 31.8182 39.3602 31.8182 38.4V32C31.8182 29.4398 29.5911 27.2 27.0455 27.2H7.95455C5.40889 27.2 3.18182 29.4398 3.18182 32V38.4C3.18182 39.3602 2.54565 40 1.59091 40C0.636165 40 0 39.3602 0 38.4V32C0 27.5204 3.5004 24 7.95455 24H27.0455C31.4996 24 35 27.5204 35 32V38.4C35 39.3602 34.3638 40 33.4091 40Z" fill="#FF3C2D"/>
</svg>
